<?xml version="1.0" standalone="no"?>
<!DOCTYPE svg PUBLIC "-//W3C//DTD SVG 20010904//EN"
 "http://www.w3.org/TR/2001/REC-SVG-20010904/DTD/svg10.dtd">
<svg version="1.0" xmlns="http://www.w3.org/2000/svg"
 width="742.000000pt" height="108.000000pt" viewBox="0 0 742.000000 108.000000"
 preserveAspectRatio="xMidYMid meet">
<metadata>
Created by potrace 1.16, written by Peter Selinger 2001-2019
</metadata>
<g transform="translate(0.000000,108.000000) scale(0.100000,-0.100000)"
fill="#DA2C26" stroke="none">
<path d="M410 923 c1 -5 43 -163 93 -353 l93 -345 85 -3 84 -3 54 218 c30 120
56 222 59 228 3 5 31 -92 62 -215 l56 -225 84 0 85 0 92 340 c51 187 92 346
93 353 0 8 -22 12 -79 12 l-79 0 -52 -217 c-28 -120 -54 -225 -57 -233 -5 -13
-24 59 -116 423 -7 27 -9 27 -85 27 l-78 0 -59 -231 c-37 -148 -61 -225 -65
-213 -4 11 -29 115 -56 232 l-49 212 -82 0 c-46 0 -83 -3 -83 -7z"/>
<path d="M1520 575 l0 -355 80 0 80 0 0 150 0 150 140 0 140 0 0 -150 0 -150
80 0 80 0 0 355 0 355 -80 0 -80 0 0 -135 0 -135 -140 0 -140 0 0 135 0 135
-80 0 -80 0 0 -355z"/>
<path d="M2360 575 l0 -355 80 0 80 0 0 355 0 355 -80 0 -80 0 0 -355z"/>
<path d="M2700 860 l0 -70 110 0 110 0 0 -285 0 -285 80 0 80 0 0 285 0 285
105 0 105 0 0 70 0 70 -295 0 -295 0 0 -70z"/>
<path d="M3470 575 l0 -355 275 0 275 0 0 70 0 70 -195 0 -195 0 0 80 0 80
175 0 175 0 0 65 0 65 -175 0 -175 0 0 70 0 70 190 0 190 0 0 70 0 70 -270 0
-270 0 0 -355z"/>
<path d="M4690 576 l0 -356 80 0 80 0 0 135 0 135 103 0 c89 0 106 -3 124 -20
26 -24 40 -66 47 -152 10 -102 6 -98 102 -98 l83 0 -13 33 c-7 17 -16 69 -19
115 -7 94 -28 147 -68 171 l-27 17 29 19 c42 29 69 90 69 159 0 73 -27 127
-82 163 l-41 28 -234 3 -233 3 0 -355z m400 204 c26 -26 35 -64 24 -103 -14
-49 -60 -67 -171 -67 l-93 0 0 95 0 95 110 0 c96 0 112 -2 130 -20z"/>
<path d="M5520 575 l0 -355 275 0 275 0 0 70 0 70 -195 0 -195 0 0 80 0 80
175 0 175 0 0 65 0 65 -175 0 -175 0 0 70 0 70 190 0 190 0 0 70 0 70 -270 0
-270 0 0 -355z"/>
<path d="M6260 575 l0 -355 188 0 c138 0 202 4 239 15 70 21 133 79 169 157
27 59 29 71 29 188 0 117 -2 129 -28 182 -15 32 -48 75 -72 96 -70 62 -118 72
-336 72 l-189 0 0 -355z m363 201 c101 -42 140 -225 73 -340 -35 -61 -73 -76
-185 -76 l-91 0 0 215 0 215 85 0 c50 0 99 -6 118 -14z"/>
</g>
</svg>
